<?xml version="1.0" standalone="no"?>
<!DOCTYPE svg PUBLIC "-//W3C//DTD SVG 1.1//EN" "http://www.w3.org/Graphics/SVG/1.1/DTD/svg11.dtd" >
<svg xmlns="http://www.w3.org/2000/svg">
<metadata></metadata>
<defs>
<font id="als_ekibastuz_extrablack" horiz-adv-x="1228" >
<font-face units-per-em="2048" ascent="1638" descent="-410" />
<missing-glyph horiz-adv-x="1024" />
<glyph horiz-adv-x="2048" />
<glyph horiz-adv-x="2048" />
<glyph unicode="&#xd;" horiz-adv-x="2048" />
<glyph unicode=" "  horiz-adv-x="1024" />
<glyph unicode="&#x09;" horiz-adv-x="1024" />
<glyph unicode="&#xa0;" horiz-adv-x="1024" />
<glyph unicode="!" horiz-adv-x="696" d="M82 0v418h532v-418h-532zM82 1434h532l-61 -902h-410z" />
<glyph unicode="&#x22;" horiz-adv-x="1165" d="M102 1434h430l-20 -471h-389zM633 1434h430l-21 -471h-389z" />
<glyph unicode="#" horiz-adv-x="1822" d="M102 184v451h197l33 164h-230v450h318l35 185h542l-36 -185h110l35 185h543l-37 -185h108v-450h-196l-31 -164h227v-451h-315l-37 -184h-541l35 184h-108l-37 -184h-541l35 184h-109zM842 635h108l33 164h-111z" />
<glyph unicode="$" horiz-adv-x="1372" d="M61 897q0 131 36.5 225.5t104 147.5t151.5 77.5t190 24.5v123h286v-123q206 -8 424 -45l-51 -328q-204 25 -373 25v-102q134 0 241.5 -48.5t174 -149t66.5 -239.5q0 -241 -115.5 -370t-366.5 -135v-144h-286v144q-261 0 -465 61l51 348q65 -13 189 -23t225 -10v115 q-101 0 -185 23t-152 71.5t-106.5 133t-38.5 198.5zM492 971q0 -25 11.5 -37t39.5 -12v102q-28 0 -39.5 -13t-11.5 -40zM829 356q52 0 52 60q0 55 -52 55v-115z" />
<glyph unicode="%" horiz-adv-x="2250" d="M102 969v112q0 192 104 282.5t286 90.5t285.5 -89.5t103.5 -283.5v-112q0 -363 -389 -363q-390 0 -390 363zM420 995q0 -91 12 -122t60 -31q44 0 56.5 28t12.5 91v106q0 33 -0.5 50.5t-4 40.5t-10.5 34t-20.5 19t-33.5 8q-44 0 -58 -31.5t-14 -85.5v-107zM580 0 q54 120 630 1434h451q-494 -1118 -633 -1434h-448zM1370 342v113q0 192 103.5 282t285.5 90t285.5 -89.5t103.5 -282.5v-113q0 -362 -389 -362t-389 362zM1688 334q0 -64 12.5 -91.5t58.5 -27.5q44 0 57 28t13 91v141q0 25 -2.5 43t-9 36.5t-21 28t-37.5 9.5q-20 0 -34 -8 t-21.5 -18.5t-11 -33.5t-4 -40.5t-0.5 -51.5v-106z" />
<glyph unicode="&#x26;" horiz-adv-x="1775" d="M82 408q0 80 18.5 144t47.5 107t73.5 76t89 52t99.5 34q-24 33 -39 60t-30 83t-15 121q0 115 74.5 200.5t195 127t268.5 41.5q90 0 169 -10.5t142 -31.5t92 -33t72 -33l-92 -388q-134 68 -225 68q-54 0 -87.5 -20.5t-33.5 -61.5q0 -50 43 -108l240 -265q9 16 17.5 57 t8.5 77l461 -56q0 -63 -25 -126.5t-65 -114t-68 -79.5t-57 -53l258 -276h-540l-64 63q-137 -83 -403 -83q-57 0 -108 3.5t-116.5 14.5t-119 29t-107.5 51t-91 76.5t-60 108.5t-23 145zM612 408q0 -60 35 -94.5t88 -34.5q106 0 158 32l-225 238q-56 -56 -56 -141z" />
<glyph unicode="'" horiz-adv-x="634" d="M102 1434h430l-20 -471h-389z" />
<glyph unicode="(" horiz-adv-x="1075" d="M123 666q0 464 299 993l489 -82q-138 -236 -197 -437t-59 -474t59 -472.5t197 -435.5l-489 -82q-299 506 -299 990z" />
<glyph unicode=")" horiz-adv-x="1075" d="M123 -242q138 236 197 435.5t59 472.5t-59 474t-197 437l489 82q299 -529 299 -993q0 -484 -299 -990z" />
<glyph unicode="*" horiz-adv-x="1544" d="M102 870l254 93l-254 92l177 368l309 -178l-21 271h410l-21 -271l310 178l176 -368l-256 -92l256 -93l-176 -368l-310 178l21 -270h-410l21 270l-309 -178z" />
<glyph unicode="+" d="M102 522v389h287v287h451v-287h286v-389h-286v-286h-451v286h-287z" />
<glyph unicode="," horiz-adv-x="696" d="M82 0v418h532v-254q0 -130 -94.5 -271.5t-212.5 -207.5l-166 96q52 45 78.5 97t26.5 122h-164z" />
<glyph unicode="-" horiz-adv-x="819" d="M102 451v389h615v-389h-615z" />
<glyph unicode="." horiz-adv-x="696" d="M82 0v418h532v-418h-532z" />
<glyph unicode="/" horiz-adv-x="1163" d="M0 0l713 1434h450l-714 -1434h-449z" />
<glyph unicode="0" horiz-adv-x="1433" d="M41 608v197q0 171 49 297.5t140.5 202.5t212.5 112.5t274 36.5q154 0 275 -36t212 -112t140 -202.5t49 -298.5v-197q0 -169 -47.5 -292t-138.5 -195.5t-211.5 -106.5t-278.5 -34q-124 0 -225.5 20.5t-186.5 67t-142.5 118.5t-89.5 178.5t-32 243.5zM594 594 q0 -43 2 -71.5t9.5 -56t20.5 -43t35.5 -25t55.5 -9.5t55.5 9.5t35.5 25t20.5 43t9.5 56t2 71.5v246q0 35 -2 61t-9.5 54.5t-20 46.5t-36 30t-55.5 12t-55.5 -12t-36 -30.5t-20 -47t-9.5 -54t-2 -60.5v-246z" />
<glyph unicode="1" horiz-adv-x="1433" d="M205 938l561 496h463v-1434h-533v791l-372 -263z" />
<glyph unicode="2" horiz-adv-x="1433" d="M113 0v111q0 166 15 272t54 181.5t97 120t155 83.5q26 11 79 30t91 34t79 34.5t63 40.5t22 43q0 35 -25 46.5t-92 11.5q-121 0 -471 -52l-51 430q317 68 557 68q104 0 189.5 -10.5t167.5 -40t138 -76.5t90 -124.5t34 -180.5q0 -70 -14 -129.5t-35 -102.5t-57 -80.5 t-70 -62t-84.5 -47.5t-89.5 -37t-95 -31q-17 -5 -49.5 -14.5t-47.5 -14t-38 -16t-33 -24t-18 -33.5t-8 -49h655v-381h-1208z" />
<glyph unicode="3" horiz-adv-x="1433" d="M123 45l61 404q201 -35 404 -35q106 0 148 13.5t42 55.5q0 49 -43.5 63.5t-152.5 14.5h-226l-53 328h279q89 0 115 14t26 53t-29 50.5t-112 11.5q-233 0 -383 -27l-76 406q58 18 197 37.5t245 19.5q139 0 240.5 -9.5t185.5 -33.5t136 -65t80 -103t28 -147 q0 -60 -10.5 -107.5t-27 -78t-42.5 -54.5t-50.5 -37t-57.5 -26q63 -18 108 -43t82 -67t55.5 -106.5t18.5 -152.5q0 -83 -19 -148t-51.5 -111t-86 -79.5t-112.5 -54t-142.5 -32t-164.5 -15.5t-188 -4q-98 0 -238 22t-186 43z" />
<glyph unicode="4" horiz-adv-x="1433" d="M61 287v379l517 768h610v-717h184l-61 -430h-123v-287h-533v287h-594zM496 719h159v260z" />
<glyph unicode="5" horiz-adv-x="1433" d="M102 45l62 363q84 -15 227.5 -25t253.5 -10q76 0 104.5 20.5t28.5 83.5q0 45 -38.5 64.5t-114.5 19.5q-131 0 -437 -14l64 887h1028l-27 -426h-561l-12 -136q29 6 118 10.5t144 4.5q79 0 137 -10.5t107.5 -37.5t80 -72.5t47.5 -115.5t17 -166q0 -95 -19 -170.5 t-50.5 -128t-81.5 -90.5t-101.5 -60t-121 -35t-130.5 -17t-139 -4q-182 0 -349 20t-237 45z" />
<glyph unicode="6" horiz-adv-x="1433" d="M102 606v219q0 200 86 343.5t231.5 213.5t334.5 70q257 0 559 -82l-82 -381q-153 51 -412 51q-105 0 -143.5 -38.5t-38.5 -120.5v-43q24 9 92 24q99 21 180 21q102 0 176.5 -21.5t131.5 -71.5t85.5 -137t28.5 -213q0 -235 -137 -347.5t-440 -112.5q-159 0 -275.5 31.5 t-203 103t-130 194t-43.5 297.5zM637 496q0 -85 14 -116.5t70 -31.5q36 0 56 23t20 67q0 129 -74 129q-32 0 -86 -12v-59z" />
<glyph unicode="7" horiz-adv-x="1433" d="M104 963v471h1223v-340q-46 -37 -95.5 -97t-106 -160t-100 -218t-72.5 -281t-29 -338h-635q0 631 409 963h-594z" />
<glyph unicode="8" horiz-adv-x="1433" d="M41 383q0 295 297 393q-52 17 -90 39.5t-73.5 60t-54 96.5t-18.5 138q0 91 45 158t128.5 107.5t193.5 59.5t248 19t247.5 -19t193 -59.5t128.5 -107.5t45 -158q0 -64 -13 -115t-34 -85.5t-52.5 -61.5t-63 -42.5t-72.5 -29.5q297 -98 297 -393q0 -113 -54 -194 t-151.5 -125.5t-212.5 -64t-258 -19.5t-258 19.5t-212.5 64t-151.5 125.5t-54 194zM594 432q0 -46 38 -78t85 -32t85 32t38 78q0 40 -45 69.5t-99 47.5q-5 -4 -23 -15t-25 -16t-20 -16t-18.5 -20t-10.5 -22t-5 -28zM594 1071q0 -37 30 -68t63 -46.5t71 -26.5q2 2 15 16.5 t19 21.5t17 22t16.5 26.5t10 26t4.5 28.5q0 35 -32.5 55.5t-90.5 20.5q-57 0 -90 -20.5t-33 -55.5z" />
<glyph unicode="9" horiz-adv-x="1433" d="M102 991q0 235 137.5 348t440.5 113q127 0 225.5 -19.5t180 -64.5t134.5 -117t82 -178.5t29 -247.5v-219q0 -200 -85.5 -343t-231 -213t-334.5 -70q-260 0 -559 81l82 381q153 -51 411 -51q105 0 144 39t39 121v43q-129 -45 -273 -45q-102 0 -176.5 21.5t-131.5 71 t-85.5 136.5t-28.5 213zM637 993q0 -129 74 -129q27 0 86 13v88q0 64 -17 91t-67 27q-36 0 -56 -23t-20 -67z" />
<glyph unicode=":" horiz-adv-x="696" d="M82 0v418h532v-418h-532zM82 623v417h532v-417h-532z" />
<glyph unicode=";" horiz-adv-x="696" d="M82 0v418h532v-254q0 -130 -94.5 -271.5t-212.5 -207.5l-166 96q52 45 78.5 97t26.5 122h-164zM82 623v417h532v-417h-532z" />
<glyph unicode="&#x3c;" horiz-adv-x="1382" d="M102 414v215q242 83 1178 409v-370q-410 -92 -608 -140v-16q175 -44 608 -139v-371q-113 39 -532 186.5t-646 225.5z" />
<glyph unicode="=" d="M102 328v348h1024v-348h-1024zM102 758v348h1024v-348h-1024z" />
<glyph unicode="&#x3e;" horiz-adv-x="1382" d="M102 2v371q441 97 609 139v16q-185 45 -609 140v370q936 -326 1178 -409v-215q-227 -78 -646 -225.5t-532 -186.5z" />
<glyph unicode="?" horiz-adv-x="1232" d="M102 1415q55 11 164.5 25t188.5 14q90 0 159 -3.5t142.5 -15t126.5 -31t102 -52t79 -77.5t48 -108.5t18 -144.5q0 -46 -7.5 -85.5t-23.5 -70.5t-33 -55t-45.5 -44.5t-50 -34.5t-57.5 -28t-57 -21.5t-59.5 -19.5t-55.5 -18q-61 -21 -61 -86v-92h-451v180q0 185 201 246 q36 10 57.5 18t51 23.5t44.5 37.5t15 50q0 55 -29.5 70.5t-113.5 15.5q-61 0 -152.5 -10t-150.5 -27zM188 0v418h533v-418h-533z" />
<glyph unicode="@" horiz-adv-x="2406" d="M102 561q0 214 52 379.5t145.5 277t232 183.5t303 103.5t367.5 31.5q140 0 254 -8.5t230.5 -31.5t206 -61.5t169 -100.5t131.5 -145.5t81.5 -200t29.5 -261.5q0 -151 -38 -265.5t-102.5 -185.5t-159 -115.5t-196.5 -61.5t-227 -17h-291v65q-22 -32 -90.5 -59t-134.5 -27 q-69 0 -129.5 26.5t-113 82t-83 155t-30.5 232.5q0 113 27 202t74 148.5t114 98.5t142 56t163 17q187 0 436 -41v-678q41 4 69.5 19.5t54 53.5t38 111t12.5 183q0 67 -4.5 121.5t-15.5 99.5t-25 79.5t-39 62t-51.5 46.5t-67.5 33t-81.5 22t-99.5 13t-116.5 6.5t-136.5 1.5 q-106 0 -195.5 -18.5t-172.5 -65t-140.5 -119t-92 -187t-34.5 -261.5q0 -117 18.5 -211.5t49.5 -159.5t79.5 -113.5t99.5 -76.5t119 -44.5t130 -22t139 -5.5q231 0 475.5 28.5t438.5 86.5l57 -299q-409 -158 -971 -158q-207 0 -368 27t-302 94.5t-233 176.5t-144.5 279.5 t-52.5 397.5zM1096 580q0 -62 10 -105.5t27 -63.5t33 -28t34 -8q25 0 41 12v395q-30 6 -45 6q-47 0 -73 -43t-27 -165z" />
<glyph unicode="A" horiz-adv-x="1556" d="M20 0l431 1434h673l412 -1434h-557l-39 205h-319l-41 -205h-560zM690 553h182l-79 383z" />
<glyph unicode="B" horiz-adv-x="1351" d="M102 0v1434h738q73 0 129.5 -8t111 -32t90 -64t57 -107t21.5 -158q0 -119 -49 -186t-121 -93q33 -9 56.5 -18.5t55 -35t51.5 -61t34 -97.5t14 -144q0 -235 -95.5 -332.5t-313.5 -97.5h-779zM614 348h123q28 0 45 33.5t17 69.5t-17 69t-45 33h-123v-205zM614 901h82 q28 0 45 33.5t17 69.5q0 33 -16.5 57t-45.5 24h-82v-184z" />
<glyph unicode="C" horiz-adv-x="1191" d="M61 588v258q0 134 39.5 240t105 174t156 112.5t186 63t202.5 18.5q64 0 159 -15t158 -31l63 -15l-86 -451q-220 41 -294 41q-70 0 -113 -40.5t-43 -102.5v-246q0 -143 156 -143q33 0 111.5 10.5t140.5 20.5l63 10l65 -451q-237 -61 -380 -61q-108 0 -203.5 18t-186 62.5 t-155.5 112t-104.5 174t-39.5 241.5z" />
<glyph unicode="D" horiz-adv-x="1495" d="M102 0v1434h574q173 0 295.5 -22t214 -71t144.5 -133.5t78.5 -203.5t25.5 -287q0 -140 -17.5 -245.5t-56.5 -186t-97 -134.5t-144.5 -88t-193.5 -48.5t-249 -14.5h-574zM635 406h41q137 0 181 62t44 249q0 85 -6.5 137.5t-19.5 88.5t-41 53t-63.5 23.5t-94.5 6.5h-41 v-620z" />
<glyph unicode="E" horiz-adv-x="1208" d="M102 0v1434h1045v-406h-512v-127h389v-369h-389v-126h512v-406h-1045z" />
<glyph unicode="F" horiz-adv-x="1187" d="M102 0v1434h1045v-451h-512v-141h389v-410h-389v-432h-533z" />
<glyph unicode="G" horiz-adv-x="1392" d="M61 561v299q0 112 27 203.5t78 155.5t117.5 110.5t151.5 73t174 39t190 12.5q249 0 497 -65l-86 -408q-192 51 -342 51q-143 0 -208.5 -47t-65.5 -145v-279q0 -105 53 -148.5t152 -43.5q69 0 143 12v145l-205 13v305h594v-766q-120 -53 -243 -75.5t-289 -22.5 q-738 0 -738 581z" />
<glyph unicode="H" horiz-adv-x="1617" d="M102 0v1434h533v-492h348v492h533v-1434h-533v532h-348v-532h-533z" />
<glyph unicode="I" horiz-adv-x="983" d="M41 1024v410h881v-410h-174v-614h194v-410h-881v410h154v614h-174z" />
<glyph unicode="J" horiz-adv-x="1110" d="M41 39l55 418q138 -47 215 -47q38 0 63.5 3.5t50.5 13.5t37.5 32t12.5 57v918h533v-971q0 -119 -28 -206t-75.5 -140t-122.5 -84t-156.5 -42t-191.5 -11q-201 0 -393 59z" />
<glyph unicode="K" horiz-adv-x="1484" d="M102 0v1434h533v-598h33l178 598h600l-279 -662l297 -772h-583l-209 655h-37v-655h-533z" />
<glyph unicode="L" d="M102 0v1434h533v-963h553v-471h-1086z" />
<glyph unicode="M" horiz-adv-x="2054" d="M61 0l115 1434h617l235 -840l234 840h616l115 -1434h-512l-39 799l-209 -799h-410l-209 799l-41 -799h-512z" />
<glyph unicode="N" horiz-adv-x="1556" d="M102 0v1434h519l362 -592v592h471v-1434h-502l-379 610v-610h-471z" />
<glyph unicode="O" horiz-adv-x="1556" d="M61 547v319q0 135 36 238t98 168.5t154.5 107t196 58t232.5 16.5t232.5 -16.5t196 -58t154.5 -107t98 -168.5t36 -238v-319q0 -135 -36 -235.5t-97.5 -163.5t-155 -101t-195.5 -52.5t-233 -14.5t-233 14.5t-195.5 52.5t-155 101t-97.5 163.5t-36 235.5zM614 614 q0 -47 2 -74.5t11 -60t26 -50t48 -29t77 -11.5t77 11.5t48 29t26 50t11 60t2 74.5v205q0 47 -2 74.5t-11 60t-26 50t-48 29t-77 11.5t-77.5 -12t-48.5 -29t-25.5 -50t-10.5 -60t-2 -74v-205z" />
<glyph unicode="P" horiz-adv-x="1433" d="M102 0v1434h594q367 0 521.5 -130t154.5 -438q0 -307 -154 -434t-522 -127h-61v-305h-533zM635 715h61q74 0 108 33t34 122q0 90 -32.5 121t-109.5 31h-61v-307z" />
<glyph unicode="Q" horiz-adv-x="1556" d="M61 547v319q0 135 36 238t98 168.5t154.5 107t196 58t232.5 16.5t232.5 -16.5t196 -58t154.5 -107t98 -168.5t36 -238v-319q0 -271 -145 -410l147 -399h-479l-90 248q-74 -6 -150 -6q-131 0 -233 14.5t-195.5 52.5t-155 101t-97.5 163.5t-36 235.5zM614 602 q0 -192 93 -207q30 -6 71 -6l-78 217h242v225q0 34 -0.5 52t-3.5 44.5t-9.5 40.5t-18 31t-29 25t-43.5 14t-60 6t-60 -6t-43.5 -14t-29 -25t-18 -31t-9.5 -40.5t-3.5 -44.5t-0.5 -52v-229z" />
<glyph unicode="R" horiz-adv-x="1458" d="M102 0v1434h615q188 0 312.5 -25t208 -85.5t119.5 -158t36 -245.5q0 -186 -57.5 -289.5t-161.5 -118.5l260 -512h-586l-168 500h-45v-500h-533zM635 795h102q66 0 93.5 31.5t27.5 93.5q0 60 -26 89t-95 29h-102v-243z" />
<glyph unicode="S" horiz-adv-x="1372" d="M61 999q0 126 41 215t122.5 141t191.5 75.5t260 23.5q309 0 577 -47l-51 -369q-116 22 -271.5 37t-219.5 15t-90.5 -11t-26.5 -37q0 -45 82 -67q41 -10 118 -28q68 -17 101 -25t89.5 -24.5t84 -29.5t69.5 -36t62 -46.5t46 -58t37 -75t19.5 -93t8.5 -115.5 q0 -108 -31 -189.5t-85 -133.5t-136 -84t-174 -44.5t-209 -12.5q-321 0 -598 86l51 368q125 -25 294 -48.5t253 -23.5q55 0 78.5 8.5t23.5 30.5q0 34 -24 54t-78 34q-59 16 -164 41q-80 19 -117.5 29t-97 30t-86 40t-62.5 54t-50.5 76.5t-26 102.5t-11.5 137z" />
<glyph unicode="T" d="M20 963v471h1188v-471h-327v-963h-533v963h-328z" />
<glyph unicode="U" horiz-adv-x="1495" d="M102 512v922h553v-942q0 -58 31.5 -80.5t95.5 -22.5q63 0 91 22t28 81v942h492v-922q0 -120 -33.5 -212.5t-90.5 -152t-138.5 -98t-171.5 -54t-197 -15.5q-162 0 -279 26t-205 86t-132 164.5t-44 255.5z" />
<glyph unicode="V" horiz-adv-x="1542" d="M20 1434h598l142 -953h12l148 953h602l-398 -1434h-718z" />
<glyph unicode="W" horiz-adv-x="2134" d="M20 1434h551l66 -869l160 869h481l154 -863l67 863h615l-347 -1434h-596l-135 866l-137 -866h-602z" />
<glyph unicode="X" horiz-adv-x="1597" d="M20 0l347 717l-347 717h635l144 -484l141 484h637l-348 -717l348 -717h-637l-141 481l-144 -481h-635z" />
<glyph unicode="Y" horiz-adv-x="1478" d="M20 1434h576l133 -600l150 600h579l-452 -1053v-381h-533v377z" />
<glyph unicode="Z" horiz-adv-x="1269" d="M41 0v383l532 682h-512v369h1127v-383l-514 -682h555v-369h-1188z" />
<glyph unicode="[" horiz-adv-x="1044" d="M102 -287v1925h840v-409h-307v-1106h307v-410h-840z" />
<glyph unicode="\" horiz-adv-x="1163" d="M23 1479h450l746 -1706h-449z" />
<glyph unicode="]" horiz-adv-x="1044" d="M102 123h308v1106h-308v409h840v-1925h-840v410z" />
<glyph unicode="^" horiz-adv-x="1513" d="M102 532l467 902h375l467 -902h-469l-176 441l-197 -441h-467z" />
<glyph unicode="_" horiz-adv-x="1024" d="M0 -41h1024v-410h-1024v410z" />
<glyph unicode="`" horiz-adv-x="651" d="M82 1534h487v-360l-331 -46z" />
<glyph unicode="a" d="M61 303q0 164 91.5 230.5t298.5 66.5h208v23q0 57 -27.5 91t-107.5 34q-64 0 -183.5 -13t-193.5 -26l-51 270q249 65 455 65q106 0 191 -11t162.5 -38.5t129.5 -72t82.5 -115.5t30.5 -164v-643h-492v61q-116 -81 -297 -81q-144 0 -220.5 75.5t-76.5 247.5zM553 311 q0 -34 18 -57t52 -23h32v166l-57 -4q-45 -15 -45 -82z" />
<glyph unicode="b" horiz-adv-x="1269" d="M82 0v1434h491v-471q71 42 131 61.5t140 19.5q196 0 290.5 -123.5t94.5 -408.5q0 -115 -10 -198.5t-33 -140t-52 -91t-76.5 -52.5t-95 -24t-118.5 -6q-129 0 -271 61v-61h-491zM573 305h33q131 0 131 207q0 186 -129 186h-35v-393z" />
<glyph unicode="c" horiz-adv-x="993" d="M61 436v148q0 104 46.5 192t124.5 146.5t181 91.5t216 33q56 0 163.5 -14t180.5 -40l-62 -307q0 2 -34 10t-77 15.5t-63 7.5q-83 0 -123.5 -37.5t-40.5 -138.5v-66q0 -102 39 -138t125 -36q18 0 33 1t24.5 2t25 4.5t23 5t31.5 8.5t37 10l62 -307q-122 -45 -344 -45 q-93 0 -175 15t-155 49.5t-125 86t-82.5 129t-30.5 174.5z" />
<glyph unicode="d" horiz-adv-x="1269" d="M41 512q0 159 27 264.5t84 163.5t131 81t182 23q68 0 116 -13.5t66 -26.5t49 -41v471h492v-1434h-492v61q-2 -1 -35 -24.5t-82 -40t-118 -16.5q-51 0 -98 10t-96 32t-88.5 63t-71 97.5t-49 141t-17.5 188.5zM532 512q0 -104 25.5 -145t97.5 -41h41v372h-41 q-50 0 -74.5 -14t-36.5 -53.5t-12 -118.5z" />
<glyph unicode="e" horiz-adv-x="1230" d="M61 412v131q0 264 140.5 382.5t433.5 118.5q83 0 153 -8t147.5 -34t131 -68.5t88.5 -118.5t35 -178v-231h-637v-31q0 -35 10.5 -57.5t32.5 -32t43.5 -12.5t56.5 -3q81 0 218 9t198 18l43 -279q-264 -38 -520 -38q-84 0 -158.5 10t-153.5 39.5t-134.5 75.5t-91.5 125 t-36 182zM553 618h188v35q0 74 -28 101.5t-78 27.5q-47 0 -64.5 -25.5t-17.5 -101.5v-37z" />
<glyph unicode="f" horiz-adv-x="942" d="M41 676v348h143v33q0 249 106 364t316 115q122 0 232 -13.5t166 -29.5l-60 -322q-97 17 -168 17q-27 0 -46 -8.5t-29 -22t-16 -36.5t-7.5 -44t-1.5 -53h225v-348h-225v-676h-492v676h-143z" />
<glyph unicode="g" d="M20 -47q0 206 134 289q-39 51 -39 108q0 75 55 127q-109 79 -109 248q0 60 16.5 108t43.5 81t69.5 57t86.5 38t104 22t112.5 10.5t120.5 2.5q55 0 134 -8v90h485q0 -82 -33.5 -146t-103.5 -93q71 -52 71 -162q0 -60 -16 -108.5t-42.5 -82t-68 -58.5t-86 -39.5t-104 -23 t-114 -11.5t-122.5 -3h-86v-86q27 2 86 2q113 0 200 -10t163 -34.5t125.5 -65t77.5 -104t28 -148.5q0 -105 -41.5 -177.5t-122.5 -113t-185 -57.5t-245 -17t-245 17t-185 57.5t-122.5 113t-41.5 177.5zM492 -47q0 -52 25.5 -80.5t96.5 -28.5q72 0 97.5 26t25.5 83 q0 50 -26 78t-97 28q-72 0 -97 -24.5t-25 -81.5zM532 725q0 -49 17 -75t65 -27q48 0 65 26.5t17 75.5q0 50 -16.5 75t-65.5 25q-48 0 -64 -24.5t-18 -75.5z" />
<glyph unicode="h" horiz-adv-x="1351" d="M82 0v1434h491v-455q137 65 330 65q48 0 79.5 -1.5t74 -8.5t70 -20.5t57 -38t47 -59t28.5 -86.5t11 -119v-711h-492v614q0 42 -29 62t-77 20q-45 0 -99 -26v-670h-491z" />
<glyph unicode="i" horiz-adv-x="655" d="M82 0v1024h491v-1024h-491zM82 1194v240h491v-240h-491z" />
<glyph unicode="j" horiz-adv-x="655" d="M-121 -371l33 275q28 -8 86 -8q34 0 59 19t25 42v1067h491v-1065q0 -369 -430 -369q-163 0 -264 39zM82 1194v240h491v-240h-491z" />
<glyph unicode="k" horiz-adv-x="1269" d="M82 0v1434h491v-768h21l143 358h527l-217 -496l223 -528h-516l-162 424h-19v-424h-491z" />
<glyph unicode="l" horiz-adv-x="655" d="M82 0v1536h491v-1536h-491z" />
<glyph unicode="m" horiz-adv-x="1925" d="M82 0v1024h471v-109q78 52 190 90.5t197 38.5q51 0 84.5 -3.5t66 -14.5t54 -33t35.5 -57q80 44 191 76t192 32q64 0 110 -7.5t77 -26t49.5 -41t28 -61.5t12.5 -77.5t3 -99.5v-731h-471v639q0 31 -22.5 46t-55.5 15q-28 0 -86 -30v-670h-471v639q0 29 -23 45t-55 16 q-38 0 -106 -47v-653h-471z" />
<glyph unicode="n" horiz-adv-x="1351" d="M82 0v1024h491v-45q83 27 200 46t226 19q141 0 206 -97.5t65 -309.5v-637h-492v588q0 62 -27.5 85t-78.5 23q-49 0 -99 -20v-676h-491z" />
<glyph unicode="o" horiz-adv-x="1249" d="M41 430v160q0 452 573 452q289 0 441.5 -112.5t152.5 -339.5v-160q0 -227 -152.5 -340t-441.5 -113q-573 0 -573 453zM512 438q0 -33 1 -53t6.5 -46t16 -41t30.5 -25.5t48 -10.5q35 0 57 14.5t31.5 43.5t12 54t2.5 64v144q0 27 -0.5 42.5t-3.5 39.5t-9.5 38t-17.5 28.5 t-29 21t-43 6.5q-102 0 -102 -127v-193z" />
<glyph unicode="p" horiz-adv-x="1290" d="M82 -410v1434h491v-61q27 18 46.5 29t59 28.5t88 27t103.5 9.5q66 0 118.5 -15t98.5 -53t76.5 -99t48 -156.5t17.5 -221.5t-18 -218t-48 -148t-77.5 -89.5t-98 -45t-117.5 -11.5q-33 0 -60.5 1.5t-53.5 5.5t-41.5 6.5t-40.5 10.5t-32.5 10.5t-35.5 13.5t-33 13v-471h-491 zM573 326q48 0 64 2q52 8 76 49.5t24 134.5q0 100 -34 143t-109 43h-21v-372z" />
<glyph unicode="q" horiz-adv-x="1290" d="M61 512q0 292 110.5 412t381.5 120q355 0 655 -20v-1434h-491v471q-47 -26 -77.5 -41t-82 -30t-98.5 -15q-206 0 -302 125t-96 412zM553 512q0 -111 33.5 -148.5t109.5 -37.5h21v372h-21q-75 0 -109 -43t-34 -143z" />
<glyph unicode="r" horiz-adv-x="968" d="M82 0v1024h491v-84q104 104 250 104h84l41 -391h-180q-74 0 -134.5 -79t-60.5 -187v-387h-491z" />
<glyph unicode="s" horiz-adv-x="1169" d="M41 729q0 168 143 241.5t430 73.5q244 0 469 -51l-43 -256q-205 45 -426 45q-48 0 -65 -12t-17 -41q0 -27 11.5 -38t50.5 -15q79 -9 132 -16.5t114 -20.5t100 -29.5t78 -42t60 -58.5t34.5 -79t13.5 -104q0 -103 -29.5 -170.5t-95.5 -106t-157.5 -54t-229.5 -15.5 q-316 0 -565 43l33 258q340 -43 475 -43q78 0 78 32q0 25 -17.5 39t-64.5 21q-204 32 -275 54q-143 45 -196 145q-41 77 -41 200z" />
<glyph unicode="t" horiz-adv-x="860" d="M20 696v328h103v246l491 41v-287h205v-328h-205v-315q0 -72 58 -72q78 0 162 10l49 -301q-171 -38 -346 -38q-225 0 -319.5 64.5t-94.5 238.5v413h-103z" />
<glyph unicode="u" horiz-adv-x="1351" d="M82 260v764h491v-588q0 -62 28 -85t79 -23q53 0 98 20v676h492v-1024h-492v45q-229 -65 -426 -65q-134 0 -202 78t-68 202z" />
<glyph unicode="v" horiz-adv-x="1308" d="M20 1024h531l96 -676h19l92 676h530l-293 -1024h-680z" />
<glyph unicode="w" horiz-adv-x="1908" d="M20 1024h517l65 -627h8l99 627h491l98 -631h9l67 631h514l-194 -1024h-639l-101 590l-102 -590h-639z" />
<glyph unicode="x" horiz-adv-x="1273" d="M20 0l228 532l-228 492h519l106 -360l94 360h514l-223 -492l223 -532h-516l-104 358l-94 -358h-519z" />
<glyph unicode="y" horiz-adv-x="1333" d="M14 1024h549l111 -719l104 719h535l-340 -1137q-75 -141 -156 -219q-142 -139 -379 -139q-165 0 -418 72l66 325q63 -18 161 -35.5t128 -17.5q56 0 83.5 13t53.5 61l29 55q-92 0 -186.5 67t-127.5 185z" />
<glyph unicode="z" horiz-adv-x="1044" d="M41 0v231l293 465h-285v328h909v-231l-272 -463h318v-330h-963z" />
<glyph unicode="{" horiz-adv-x="1126" d="M102 487v437h129q25 0 38.5 17t13.5 44v236q0 93 26 164.5t73.5 119t118 77.5t153 43t186.5 13h184v-434h-145q-66 0 -66 -61v-291q0 -112 -131 -137q47 -20 90 -77.5t43 -123.5v-301q0 -61 64 -61h145v-439h-184q-273 0 -415 95.5t-142 312.5v305q0 27 -13.5 44 t-38.5 17h-129z" />
<glyph unicode="|" horiz-adv-x="737" d="M102 -514v2050h533v-2050h-533z" />
<glyph unicode="}" horiz-adv-x="1126" d="M102 152h146q63 0 63 61v301q0 66 43 123.5t90 77.5q-23 4 -43.5 12.5t-42 23.5t-34.5 41t-13 60v291q0 61 -63 61h-146v434h185q104 0 186.5 -13t153 -43t118 -77.5t73.5 -119t26 -164.5v-236q0 -28 13 -44.5t38 -16.5h129v-437h-129q-25 0 -38 -16.5t-13 -44.5v-305 q0 -217 -142 -312.5t-415 -95.5h-185v439z" />
<glyph unicode="~" horiz-adv-x="1603" d="M143 915q44 32 74 51.5t78.5 46.5t98.5 40.5t100 13.5q105 0 204 -24t189.5 -48t175.5 -24q62 0 146.5 31t142.5 65l190 -436q-38 -34 -66 -56t-79.5 -56t-108 -52t-114.5 -18q-92 0 -177 15t-138.5 33t-122.5 33t-132 15q-77 0 -167.5 -22t-145.5 -46z" />
<glyph unicode="&#xa3;" horiz-adv-x="1933" d="M143 342q107 45 197 68v174h-115v309h115v84q0 102 35 183.5t96 136t147 90.5t184.5 51.5t213.5 15.5q114 0 240 -20.5t187 -37t89 -26.5l-90 -360q-2 2 -76 13.5t-180 23.5t-170 12q-144 0 -144 -133v-33h431v-311h-431v-133q23 -4 97 -23q15 -4 51 -14.5t54 -15.5 t47.5 -11.5t57 -9t56.5 -2.5q79 0 195 28.5t163 49.5l156 -336q-187 -135 -514 -135q-94 0 -174 14t-128.5 31t-124.5 31t-163 14q-70 0 -190.5 -18.5t-204.5 -49.5z" />
<glyph unicode="&#xa7;" horiz-adv-x="1638" d="M102 518q0 75 48.5 141.5t125.5 114.5q-84 42 -129 114t-45 156q0 96 60 171.5t161.5 122t228 70.5t267.5 24q266 0 662 -66l-95 -324q-12 2 -65.5 12t-76 13.5t-73.5 12t-85 12.5t-82 9t-93.5 7t-91.5 2q-184 0 -184 -59q0 -26 74 -52t204 -59q23 -6 72 -17.5t80.5 -19 t81.5 -21.5t84 -26.5t78 -33t73.5 -41.5t61 -50t50 -61.5t30.5 -74.5t12 -89q0 -158 -172 -260q172 -103 172 -266q0 -101 -60.5 -178t-164 -122t-228 -67.5t-264.5 -22.5q-187 0 -371 21t-290 45l94 326q107 -27 299.5 -48.5t267.5 -21.5q78 0 120.5 10t53.5 23.5t11 34.5 q0 14 -11 25.5t-32.5 21t-44.5 17t-56.5 14.5t-58 11.5t-60 10t-51.5 8.5q-45 8 -75.5 14.5t-82 19t-88.5 25t-85 33t-81.5 42.5t-69 53t-57 66t-35.5 80.5t-14 96.5zM635 518q0 -42 42.5 -66.5t151.5 -52.5q175 72 175 107q0 38 -39.5 66t-153.5 49q-176 -55 -176 -103z " />
<glyph unicode="&#xa8;" horiz-adv-x="1093" d="M82 1153v342h412v-342h-412zM598 1153v342h414v-342h-414z" />
<glyph unicode="&#xa9;" horiz-adv-x="2068" d="M102 522q0 161 32 298.5t103.5 255.5t178.5 201t264.5 130t353.5 47t353.5 -47t264.5 -130t178.5 -201t103.5 -255.5t32 -298.5t-32 -298.5t-103.5 -255.5t-178.5 -201t-264.5 -130t-353.5 -47t-353.5 47t-264.5 130t-178.5 201t-103.5 255.5t-32 298.5zM506 524 q0 -105 16 -191.5t43.5 -147.5t68 -107t85 -74t99.5 -45.5t106 -24t110 -6.5q90 0 157 9.5t129.5 33t105 66.5t75 108.5t47.5 159.5t15 219q0 224 -54.5 355t-168.5 189t-306 58q-528 0 -528 -602zM631 436v174q0 113 40 196t109 129t148.5 67.5t171.5 21.5q44 0 108.5 -10 t107.5 -20l42 -11l-58 -307q-151 29 -200 29q-47 0 -77 -28t-30 -71v-166q0 -44 26 -71t81 -27q22 0 75.5 7t96.5 15l43 7l43 -305q-160 -43 -258 -43q-73 0 -138.5 12t-127 42t-106 76t-71 118.5t-26.5 164.5z" />
<glyph unicode="&#xab;" horiz-adv-x="1345" d="M102 543l244 418h406l-197 -418l193 -437h-418zM635 543l244 418h405l-197 -418l193 -437h-418z" />
<glyph unicode="&#xad;" horiz-adv-x="819" d="M102 451v389h615v-389h-615z" />
<glyph unicode="&#xae;" d="M102 1034q0 91 24 165.5t73 132.5t131 90t192 32t192.5 -32t131.5 -90t72.5 -132.5t23.5 -165.5q0 -92 -23.5 -166.5t-72.5 -132.5t-131 -89.5t-193 -31.5q-110 0 -192 31.5t-131 89.5t-73 132.5t-24 166.5zM295 1032q0 -78 19.5 -132t54 -80t71 -36t82.5 -10 q61 0 100.5 10t72 37t47 78.5t14.5 132.5q0 146 -54 205t-180 59q-227 0 -227 -264zM369 852v373h159q96 0 136.5 -29.5t40.5 -103.5q0 -97 -58 -107l68 -133h-152l-45 129h-10v-129h-139zM508 1059h27q17 0 23.5 7.5t6.5 25.5q0 30 -30 30h-27v-63z" />
<glyph unicode="&#xb0;" d="M102 963q0 138 69 256t187 187t256 69t256 -69t187 -187t69 -256t-69 -256t-187 -187t-256 -69t-256 69t-187 187t-69 256zM469 963q0 -62 42 -104t103 -42q62 0 105 42.5t43 103.5t-43 104t-105 43q-61 0 -103 -42.5t-42 -104.5z" />
<glyph unicode="&#xb1;" d="M102 0v389h1024v-389h-1024zM102 758v389h287v287h451v-287h286v-389h-286v-287h-451v287h-287z" />
<glyph unicode="&#xb4;" horiz-adv-x="651" d="M82 1167v369h487l-196 -414z" />
<glyph unicode="&#xb6;" horiz-adv-x="1822" d="M102 983q0 225 110.5 338t313.5 113h1112l82 -533h-184v-1075l-410 -66v1141h-155v-1151l-410 -57v839h-35q-203 0 -313.5 113t-110.5 338z" />
<glyph unicode="&#xb7;" horiz-adv-x="598" d="M102 512q0 88 48 143.5t147 55.5t149 -55.5t50 -143.5q0 -87 -50 -141t-149 -54t-147 53.5t-48 141.5z" />
<glyph unicode="&#xbb;" horiz-adv-x="1345" d="M102 961h406l244 -418l-228 -437h-418l193 437zM635 961h405l244 -418l-227 -437h-418l192 437z" />
<glyph unicode="&#xc0;" horiz-adv-x="1556" d="M20 0l431 1434h673l412 -1434h-557l-39 205h-319l-41 -205h-560zM535 1944h487v-361l-332 -45zM690 553h182l-79 383z" />
<glyph unicode="&#xc1;" horiz-adv-x="1556" d="M20 0l431 1434h673l412 -1434h-557l-39 205h-319l-41 -205h-560zM535 1577v369h487l-197 -414zM690 553h182l-79 383z" />
<glyph unicode="&#xc2;" horiz-adv-x="1556" d="M20 0l431 1434h673l412 -1434h-557l-39 205h-319l-41 -205h-560zM358 1604l199 311h420l219 -311h-362l-60 157l-53 -157h-363zM690 553h182l-79 383z" />
<glyph unicode="&#xc3;" horiz-adv-x="1556" d="M20 0l431 1434h673l412 -1434h-557l-39 205h-319l-41 -205h-560zM289 1860q38 28 67.5 47t73 41.5t91.5 34.5t97 12q52 0 99 -18.5t76.5 -40t69.5 -40t81 -18.5q40 0 70.5 11t77 40.5t59.5 36.5l115 -213q-156 -172 -322 -172q-60 0 -111.5 18.5t-81 40t-65 40 t-68.5 18.5q-44 0 -84 -10t-94 -33t-65 -27zM690 553h182l-79 383z" />
<glyph unicode="&#xc4;" horiz-adv-x="1556" d="M20 0l431 1434h673l412 -1434h-557l-39 205h-319l-41 -205h-560zM313 1563v342h412v-342h-412zM690 553h182l-79 383zM829 1563v342h414v-342h-414z" />
<glyph unicode="&#xc8;" horiz-adv-x="1208" d="M102 0v1434h1045v-406h-512v-127h389v-369h-389v-126h512v-406h-1045zM360 1944h488v-361l-332 -45z" />
<glyph unicode="&#xc9;" horiz-adv-x="1208" d="M102 0v1434h1045v-406h-512v-127h389v-369h-389v-126h512v-406h-1045zM360 1577v369h488l-197 -414z" />
<glyph unicode="&#xca;" horiz-adv-x="1208" d="M102 0v1434h1045v-406h-512v-127h389v-369h-389v-126h512v-406h-1045zM184 1604l199 311h420l219 -311h-363l-59 157l-53 -157h-363z" />
<glyph unicode="&#xcb;" horiz-adv-x="1208" d="M102 0v1434h1045v-406h-512v-127h389v-369h-389v-126h512v-406h-1045zM139 1563v342h412v-342h-412zM655 1563v342h414v-342h-414z" />
<glyph unicode="&#xcc;" horiz-adv-x="983" d="M41 1024v410h881v-410h-174v-614h194v-410h-881v410h154v614h-174zM248 1944h487v-361l-332 -45z" />
<glyph unicode="&#xcd;" horiz-adv-x="983" d="M41 1024v410h881v-410h-174v-614h194v-410h-881v410h154v614h-174zM248 1577v369h487l-196 -414z" />
<glyph unicode="&#xce;" horiz-adv-x="983" d="M41 1024v410h881v-410h-174v-614h194v-410h-881v410h154v614h-174zM74 1604l198 311h420l219 -311h-362l-60 157l-53 -157h-362z" />
<glyph unicode="&#xcf;" horiz-adv-x="983" d="M27 1563v342h411v-342h-411zM41 1024v410h881v-410h-174v-614h194v-410h-881v410h154v614h-174zM543 1563v342h413v-342h-413z" />
<glyph unicode="&#xd2;" horiz-adv-x="1556" d="M61 547v319q0 135 36 238t98 168.5t154.5 107t196 58t232.5 16.5t232.5 -16.5t196 -58t154.5 -107t98 -168.5t36 -238v-319q0 -135 -36 -235.5t-97.5 -163.5t-155 -101t-195.5 -52.5t-233 -14.5t-233 14.5t-195.5 52.5t-155 101t-97.5 163.5t-36 235.5zM535 1944h487 v-361l-332 -45zM614 614q0 -47 2 -74.5t11 -60t26 -50t48 -29t77 -11.5t77 11.5t48 29t26 50t11 60t2 74.5v205q0 47 -2 74.5t-11 60t-26 50t-48 29t-77 11.5t-77.5 -12t-48.5 -29t-25.5 -50t-10.5 -60t-2 -74v-205z" />
<glyph unicode="&#xd3;" horiz-adv-x="1556" d="M61 547v319q0 135 36 238t98 168.5t154.5 107t196 58t232.5 16.5t232.5 -16.5t196 -58t154.5 -107t98 -168.5t36 -238v-319q0 -135 -36 -235.5t-97.5 -163.5t-155 -101t-195.5 -52.5t-233 -14.5t-233 14.5t-195.5 52.5t-155 101t-97.5 163.5t-36 235.5zM535 1577v369h487 l-197 -414zM614 614q0 -47 2 -74.5t11 -60t26 -50t48 -29t77 -11.5t77 11.5t48 29t26 50t11 60t2 74.5v205q0 47 -2 74.5t-11 60t-26 50t-48 29t-77 11.5t-77.5 -12t-48.5 -29t-25.5 -50t-10.5 -60t-2 -74v-205z" />
<glyph unicode="&#xd4;" horiz-adv-x="1556" d="M61 547v319q0 135 36 238t98 168.5t154.5 107t196 58t232.5 16.5t232.5 -16.5t196 -58t154.5 -107t98 -168.5t36 -238v-319q0 -135 -36 -235.5t-97.5 -163.5t-155 -101t-195.5 -52.5t-233 -14.5t-233 14.5t-195.5 52.5t-155 101t-97.5 163.5t-36 235.5zM358 1604l199 311 h420l219 -311h-362l-60 157l-53 -157h-363zM614 614q0 -47 2 -74.5t11 -60t26 -50t48 -29t77 -11.5t77 11.5t48 29t26 50t11 60t2 74.5v205q0 47 -2 74.5t-11 60t-26 50t-48 29t-77 11.5t-77.5 -12t-48.5 -29t-25.5 -50t-10.5 -60t-2 -74v-205z" />
<glyph unicode="&#xd5;" horiz-adv-x="1556" d="M61 547v319q0 135 36 238t98 168.5t154.5 107t196 58t232.5 16.5t232.5 -16.5t196 -58t154.5 -107t98 -168.5t36 -238v-319q0 -135 -36 -235.5t-97.5 -163.5t-155 -101t-195.5 -52.5t-233 -14.5t-233 14.5t-195.5 52.5t-155 101t-97.5 163.5t-36 235.5zM289 1860 q38 28 67.5 47t73 41.5t91.5 34.5t97 12q52 0 99 -18.5t76.5 -40t69.5 -40t81 -18.5q40 0 70.5 11t77 40.5t59.5 36.5l115 -213q-156 -172 -322 -172q-60 0 -111.5 18.5t-81 40t-65 40t-68.5 18.5q-44 0 -84 -10t-94 -33t-65 -27zM614 614q0 -47 2 -74.5t11 -60t26 -50 t48 -29t77 -11.5t77 11.5t48 29t26 50t11 60t2 74.5v205q0 47 -2 74.5t-11 60t-26 50t-48 29t-77 11.5t-77.5 -12t-48.5 -29t-25.5 -50t-10.5 -60t-2 -74v-205z" />
<glyph unicode="&#xd6;" horiz-adv-x="1556" d="M61 547v319q0 135 36 238t98 168.5t154.5 107t196 58t232.5 16.5t232.5 -16.5t196 -58t154.5 -107t98 -168.5t36 -238v-319q0 -135 -36 -235.5t-97.5 -163.5t-155 -101t-195.5 -52.5t-233 -14.5t-233 14.5t-195.5 52.5t-155 101t-97.5 163.5t-36 235.5zM313 1563v342h412 v-342h-412zM614 614q0 -47 2 -74.5t11 -60t26 -50t48 -29t77 -11.5t77 11.5t48 29t26 50t11 60t2 74.5v205q0 47 -2 74.5t-11 60t-26 50t-48 29t-77 11.5t-77.5 -12t-48.5 -29t-25.5 -50t-10.5 -60t-2 -74v-205zM829 1563v342h414v-342h-414z" />
<glyph unicode="&#xd9;" horiz-adv-x="1495" d="M102 512v922h553v-942q0 -62 25.5 -82.5t101.5 -20.5q75 0 97 20t22 83v942h492v-922q0 -120 -33.5 -212.5t-90.5 -152t-138.5 -98t-171.5 -54t-197 -15.5q-162 0 -279 26t-205 86t-132 164.5t-44 255.5zM504 1944h487v-361l-332 -45z" />
<glyph unicode="&#xda;" horiz-adv-x="1495" d="M102 512v922h553v-942q0 -62 25.5 -82.5t101.5 -20.5q75 0 97 20t22 83v942h492v-922q0 -120 -33.5 -212.5t-90.5 -152t-138.5 -98t-171.5 -54t-197 -15.5q-162 0 -279 26t-205 86t-132 164.5t-44 255.5zM504 1577v369h487l-196 -414z" />
<glyph unicode="&#xdb;" horiz-adv-x="1495" d="M102 512v922h553v-942q0 -62 25.5 -82.5t101.5 -20.5q75 0 97 20t22 83v942h492v-922q0 -120 -33.5 -212.5t-90.5 -152t-138.5 -98t-171.5 -54t-197 -15.5q-162 0 -279 26t-205 86t-132 164.5t-44 255.5zM328 1604l198 311h420l219 -311h-362l-60 157l-53 -157h-362z" />
<glyph unicode="&#xdc;" horiz-adv-x="1495" d="M102 512v922h553v-942q0 -62 25.5 -82.5t101.5 -20.5q75 0 97 20t22 83v942h492v-922q0 -120 -33.5 -212.5t-90.5 -152t-138.5 -98t-171.5 -54t-197 -15.5q-162 0 -279 26t-205 86t-132 164.5t-44 255.5zM317 1563v342h412v-342h-412zM834 1563v342h413v-342h-413z" />
<glyph unicode="&#xe0;" d="M61 303q0 164 91.5 230.5t298.5 66.5h208v23q0 57 -27.5 91t-107.5 34q-64 0 -183.5 -13t-193.5 -26l-51 270q249 65 455 65q106 0 191 -11t162.5 -38.5t129.5 -72t82.5 -115.5t30.5 -164v-643h-492v61q-116 -81 -297 -81q-144 0 -220.5 75.5t-76.5 247.5zM371 1534h487 v-360l-332 -46zM553 311q0 -34 18 -57t52 -23h32v166l-57 -4q-45 -15 -45 -82z" />
<glyph unicode="&#xe1;" d="M61 303q0 164 91.5 230.5t298.5 66.5h208v23q0 57 -27.5 91t-107.5 34q-64 0 -183.5 -13t-193.5 -26l-51 270q249 65 455 65q106 0 191 -11t162.5 -38.5t129.5 -72t82.5 -115.5t30.5 -164v-643h-492v61q-116 -81 -297 -81q-144 0 -220.5 75.5t-76.5 247.5zM371 1167v369 h487l-196 -414zM553 311q0 -34 18 -57t52 -23h32v166l-57 -4q-45 -15 -45 -82z" />
<glyph unicode="&#xe2;" d="M61 303q0 164 91.5 230.5t298.5 66.5h208v23q0 57 -27.5 91t-107.5 34q-64 0 -183.5 -13t-193.5 -26l-51 270q249 65 455 65q106 0 191 -11t162.5 -38.5t129.5 -72t82.5 -115.5t30.5 -164v-643h-492v61q-116 -81 -297 -81q-144 0 -220.5 75.5t-76.5 247.5zM195 1194 l198 311h420l219 -311h-362l-60 158l-53 -158h-362zM553 311q0 -34 18 -57t52 -23h32v166l-57 -4q-45 -15 -45 -82z" />
<glyph unicode="&#xe3;" d="M61 303q0 164 91.5 230.5t298.5 66.5h208v23q0 57 -27.5 91t-107.5 34q-64 0 -183.5 -13t-193.5 -26l-51 270q249 65 455 65q106 0 191 -11t162.5 -38.5t129.5 -72t82.5 -115.5t30.5 -164v-643h-492v61q-116 -81 -297 -81q-144 0 -220.5 75.5t-76.5 247.5zM125 1450 q52 38 92 63t107 48.5t131 23.5q52 0 99 -18.5t76 -40t69 -40t81 -18.5q40 0 70.5 11t77 40.5t59.5 36.5l115 -213q-156 -172 -322 -172q-60 0 -111.5 18.5t-80.5 40t-64.5 40t-68.5 18.5q-44 0 -83.5 -9.5t-96 -33t-64.5 -26.5zM553 311q0 -34 18 -57t52 -23h32v166l-57 -4 q-45 -15 -45 -82z" />
<glyph unicode="&#xe4;" d="M61 303q0 164 91.5 230.5t298.5 66.5h208v23q0 57 -27.5 91t-107.5 34q-64 0 -183.5 -13t-193.5 -26l-51 270q249 65 455 65q106 0 191 -11t162.5 -38.5t129.5 -72t82.5 -115.5t30.5 -164v-643h-492v61q-116 -81 -297 -81q-144 0 -220.5 75.5t-76.5 247.5zM150 1153v342 h411v-342h-411zM553 311q0 -34 18 -57t52 -23h32v166l-57 -4q-45 -15 -45 -82zM666 1153v342h413v-342h-413z" />
<glyph unicode="&#xe8;" horiz-adv-x="1230" d="M61 412v131q0 264 140.5 382.5t433.5 118.5q83 0 153 -8t147.5 -34t131 -68.5t88.5 -118.5t35 -178v-231h-637v-31q0 -29 9 -50t21 -31.5t34 -16t37.5 -6.5t41.5 -1q81 0 218 9t198 18l45 -283q-236 -34 -522 -34q-84 0 -158.5 10t-153.5 39.5t-134.5 75.5t-91.5 125 t-36 182zM371 1534h487v-360l-332 -46zM553 618h188v35q0 74 -28 101.5t-78 27.5q-47 0 -64.5 -25.5t-17.5 -101.5v-37z" />
<glyph unicode="&#xe9;" horiz-adv-x="1230" d="M61 412v131q0 264 140.5 382.5t433.5 118.5q83 0 153 -8t147.5 -34t131 -68.5t88.5 -118.5t35 -178v-231h-637v-31q0 -35 10.5 -57t32 -32t43.5 -13t57 -3q81 0 218 9t198 18l45 -283q-236 -34 -522 -34q-84 0 -158.5 10t-153.5 39.5t-134.5 75.5t-91.5 125t-36 182z M371 1167v369h487l-196 -414zM553 618h188v35q0 74 -28 101.5t-78 27.5q-47 0 -64.5 -25.5t-17.5 -101.5v-37z" />
<glyph unicode="&#xea;" horiz-adv-x="1230" d="M61 412v131q0 264 140.5 382.5t433.5 118.5q83 0 153 -8t147.5 -34t131 -68.5t88.5 -118.5t35 -178v-231h-637v-31q0 -29 9.5 -50t22.5 -31.5t35 -16t37 -6.5t39 -1q81 0 218 9t198 18l45 -283q-236 -34 -522 -34q-84 0 -158.5 10t-153.5 39.5t-134.5 75.5t-91.5 125 t-36 182zM197 1194l198 311h420l219 -311h-362l-60 158l-53 -158h-362zM553 618h188v35q0 74 -28 101.5t-78 27.5q-47 0 -64.5 -25.5t-17.5 -101.5v-37z" />
<glyph unicode="&#xeb;" horiz-adv-x="1230" d="M61 412v131q0 264 140.5 382.5t433.5 118.5q83 0 153 -8t147.5 -34t131 -68.5t88.5 -118.5t35 -178v-231h-637v-31q0 -29 8.5 -49.5t20.5 -31t33 -16.5t38 -7t43 -1q81 0 218 9t198 18l45 -283q-236 -34 -522 -34q-84 0 -158.5 10t-153.5 39.5t-134.5 75.5t-91.5 125 t-36 182zM150 1153v342h411v-342h-411zM553 618h188v35q0 74 -28 101.5t-78 27.5q-47 0 -64.5 -25.5t-17.5 -101.5v-37zM666 1153v342h413v-342h-413z" />
<glyph unicode="&#xec;" horiz-adv-x="655" d="M82 0v1024h491v-1024h-491zM84 1534h487v-360l-331 -46z" />
<glyph unicode="&#xed;" horiz-adv-x="655" d="M82 0v1024h491v-1024h-491zM84 1167v369h487l-196 -414z" />
<glyph unicode="&#xee;" horiz-adv-x="655" d="M-90 1194l199 311h419l220 -311h-363l-59 158l-54 -158h-362zM82 0v1024h491v-1024h-491z" />
<glyph unicode="&#xef;" horiz-adv-x="655" d="M-137 1153v342h411v-342h-411zM82 0v1024h491v-1024h-491zM379 1153v342h414v-342h-414z" />
<glyph unicode="&#xf2;" horiz-adv-x="1249" d="M41 430v160q0 452 573 452q289 0 441.5 -112.5t152.5 -339.5v-160q0 -227 -152.5 -340t-441.5 -113q-573 0 -573 453zM381 1534h487v-360l-331 -46zM512 438q0 -33 1 -53t6.5 -46t16 -41t30.5 -25.5t48 -10.5q35 0 57 14.5t31.5 43.5t12 54t2.5 64v144q0 27 -0.5 42.5 t-3.5 39.5t-9.5 38t-17.5 28.5t-29 21t-43 6.5q-102 0 -102 -127v-193z" />
<glyph unicode="&#xf3;" horiz-adv-x="1249" d="M41 430v160q0 452 573 452q289 0 441.5 -112.5t152.5 -339.5v-160q0 -227 -152.5 -340t-441.5 -113q-573 0 -573 453zM381 1167v369h487l-196 -414zM512 438q0 -33 1 -53t6.5 -46t16 -41t30.5 -25.5t48 -10.5q35 0 57 14.5t31.5 43.5t12 54t2.5 64v144q0 27 -0.5 42.5 t-3.5 39.5t-9.5 38t-17.5 28.5t-29 21t-43 6.5q-102 0 -102 -127v-193z" />
<glyph unicode="&#xf4;" horiz-adv-x="1249" d="M41 430v160q0 452 573 452q289 0 441.5 -112.5t152.5 -339.5v-160q0 -227 -152.5 -340t-441.5 -113q-573 0 -573 453zM205 1194l198 311h420l219 -311h-362l-59 158l-54 -158h-362zM512 438q0 -33 1 -53t6.5 -46t16 -41t30.5 -25.5t48 -10.5q35 0 57 14.5t31.5 43.5 t12 54t2.5 64v144q0 27 -0.5 42.5t-3.5 39.5t-9.5 38t-17.5 28.5t-29 21t-43 6.5q-102 0 -102 -127v-193z" />
<glyph unicode="&#xf5;" horiz-adv-x="1249" d="M41 430v160q0 452 573 452q289 0 441.5 -112.5t152.5 -339.5v-160q0 -227 -152.5 -340t-441.5 -113q-573 0 -573 453zM135 1450q52 38 92 63t107 48.5t131 23.5q52 0 99 -18.5t76.5 -40t69.5 -40t81 -18.5q40 0 70.5 11t76 40t59.5 37l115 -213q-156 -172 -321 -172 q-60 0 -111.5 18.5t-81 40t-65 40t-68.5 18.5q-44 0 -83.5 -9.5t-96 -33t-64.5 -26.5zM512 438q0 -33 1 -53t6.5 -46t16 -41t30.5 -25.5t48 -10.5q35 0 57 14.5t31.5 43.5t12 54t2.5 64v144q0 27 -0.5 42.5t-3.5 39.5t-9.5 38t-17.5 28.5t-29 21t-43 6.5q-102 0 -102 -127 v-193z" />
<glyph unicode="&#xf6;" horiz-adv-x="1249" d="M41 430v160q0 452 573 452q289 0 441.5 -112.5t152.5 -339.5v-160q0 -227 -152.5 -340t-441.5 -113q-573 0 -573 453zM160 1153v342h411v-342h-411zM512 438q0 -33 1 -53t6.5 -46t16 -41t30.5 -25.5t48 -10.5q35 0 57 14.5t31.5 43.5t12 54t2.5 64v144q0 27 -0.5 42.5 t-3.5 39.5t-9.5 38t-17.5 28.5t-29 21t-43 6.5q-102 0 -102 -127v-193zM676 1153v342h414v-342h-414z" />
<glyph unicode="&#xf9;" horiz-adv-x="1351" d="M82 260v764h491v-588q0 -62 28 -85t79 -23q53 0 98 20v676h492v-1024h-492v45q-229 -65 -426 -65q-134 0 -202 78t-68 202zM432 1534h488v-360l-332 -46z" />
<glyph unicode="&#xfa;" horiz-adv-x="1351" d="M82 260v764h491v-588q0 -62 28 -85t79 -23q53 0 98 20v676h492v-1024h-492v45q-229 -65 -426 -65q-134 0 -202 78t-68 202zM432 1167v369h488l-197 -414z" />
<glyph unicode="&#xfb;" horiz-adv-x="1351" d="M82 260v764h491v-588q0 -62 28 -85t79 -23q53 0 98 20v676h492v-1024h-492v45q-229 -65 -426 -65q-134 0 -202 78t-68 202zM256 1194l199 311h419l220 -311h-363l-59 158l-54 -158h-362z" />
<glyph unicode="&#xfc;" horiz-adv-x="1351" d="M82 260v764h491v-588q0 -62 28 -85t79 -23q53 0 98 20v676h492v-1024h-492v45q-229 -65 -426 -65q-134 0 -202 78t-68 202zM211 1153v342h412v-342h-412zM727 1153v342h414v-342h-414z" />
<glyph unicode="&#x2c6;" horiz-adv-x="1103" d="M143 1194l199 311h420l219 -311h-363l-59 158l-53 -158h-363z" />
<glyph unicode="&#x2dc;" horiz-adv-x="1202" d="M123 1450q52 38 92 63t107 48.5t131 23.5q52 0 99 -18.5t76 -40t69 -40t81 -18.5q40 0 70.5 11t77 40.5t59.5 36.5l115 -213q-156 -172 -322 -172q-60 0 -111.5 18.5t-80.5 40t-64.5 40t-68.5 18.5q-44 0 -83.5 -9.5t-96 -33t-64.5 -26.5z" />
<glyph unicode="&#x401;" horiz-adv-x="1249" d="M102 0v1434h1045v-406h-512v-127h389v-369h-389v-126h512v-406h-1045zM160 1563v342h411v-342h-411zM676 1563v342h414v-342h-414z" />
<glyph unicode="&#x410;" horiz-adv-x="1556" d="M20 0l431 1434h673l412 -1434h-557l-39 205h-319l-41 -205h-560zM690 553h182l-79 383z" />
<glyph unicode="&#x411;" horiz-adv-x="1413" d="M102 0v1434h1127v-410h-594v-127h293q211 0 307 -107.5t96 -338.5q0 -233 -97 -342t-312 -109h-820zM635 367h123q29 0 45 24.5t16 59.5t-16 59.5t-45 24.5h-123v-168z" />
<glyph unicode="&#x412;" horiz-adv-x="1372" d="M102 0v1434h738q73 0 129.5 -8t111 -32t90 -64t57 -107t21.5 -158q0 -119 -49 -186t-121 -93q33 -9 56.5 -18.5t55 -35t51.5 -61t34 -97.5t14 -144q0 -235 -95.5 -332.5t-313.5 -97.5h-779zM614 348h123q28 0 45 33.5t17 69.5t-17 69t-45 33h-123v-205zM614 901h82 q28 0 45 33.5t17 69.5q0 33 -16.5 57t-45.5 24h-82v-184z" />
<glyph unicode="&#x413;" horiz-adv-x="1187" d="M102 0v1434h1045v-471h-512v-963h-533z" />
<glyph unicode="&#x414;" horiz-adv-x="1740" d="M41 -410v820h156q37 70 63.5 183.5t39.5 215.5t19.5 242.5t7.5 210.5t1 172h1188v-1024h163l-41 -820h-491v410h-574l-20 -410h-512zM709 410h274v573h-162q-9 -127 -17.5 -205t-33 -186.5t-61.5 -181.5z" />
<glyph unicode="&#x415;" horiz-adv-x="1249" d="M102 0v1434h1045v-406h-512v-127h389v-369h-389v-126h512v-406h-1045z" />
<glyph unicode="&#x416;" horiz-adv-x="2113" d="M41 1434h557l158 -596h35v596h532v-596h35l158 596h557l-254 -666l245 -768h-538l-170 690h-33v-690h-532v690h-35l-172 -690h-539l250 768z" />
<glyph unicode="&#x417;" horiz-adv-x="1290" d="M61 45l62 383q29 -5 108 -21.5t138 -25t116 -8.5q105 0 148 18.5t43 71.5q0 37 -21.5 57t-82.5 30.5t-177 10.5h-162v328h246q86 0 114 22.5t28 65.5q0 44 -32 63t-110 19q-44 0 -95 -5.5t-82.5 -10.5t-89.5 -16.5t-75 -14.5l-65 385q188 57 432 57q138 0 236 -10 t176 -33.5t124 -64.5t69.5 -102.5t23.5 -147.5q0 -74 -15 -128.5t-44 -88t-58.5 -52t-71.5 -34.5q63 -18 108 -43t82 -67t55.5 -106.5t18.5 -152.5q0 -83 -16.5 -147.5t-45.5 -111.5t-78 -80t-104 -53.5t-134.5 -32t-158.5 -15.5t-186 -4q-133 0 -252.5 20.5t-171.5 44.5z " />
<glyph unicode="&#x418;" horiz-adv-x="1576" d="M102 0v1434h533v-635l422 635h418v-1434h-533v635l-422 -635h-418z" />
<glyph unicode="&#x419;" horiz-adv-x="1576" d="M102 0v1434h533v-635l422 635h418v-1434h-533v635l-422 -635h-418zM291 1792v51h366q0 -94 131 -94q136 0 136 94h366v-51q0 -54 -16 -97t-41 -71.5t-66 -49t-80 -31.5t-95 -17.5t-99.5 -8t-104.5 -1.5q-60 0 -103.5 1.5t-99 8t-94.5 17.5t-79.5 31.5t-65 49t-40 71.5 t-15.5 97z" />
<glyph unicode="&#x41a;" horiz-adv-x="1484" d="M102 0v1434h533v-598h33l178 598h600l-279 -662l297 -772h-583l-209 655h-37v-655h-533z" />
<glyph unicode="&#x41b;" horiz-adv-x="1648" d="M20 416q35 0 78 6q39 6 69.5 28t53 64.5t38.5 89.5t26.5 122.5t17 143t9.5 171t4 186t1 207.5h1229v-1434h-532v963h-211q-7 -206 -21.5 -353t-43.5 -259.5t-68 -181.5t-100.5 -112.5t-135.5 -60t-178 -16.5q-92 0 -174 20z" />
<glyph unicode="&#x41c;" horiz-adv-x="2054" d="M61 0l115 1434h617l235 -840l234 840h616l115 -1434h-512l-39 799l-209 -799h-410l-209 799l-41 -799h-512z" />
<glyph unicode="&#x41d;" horiz-adv-x="1617" d="M102 0v1434h533v-492h348v492h533v-1434h-533v532h-348v-532h-533z" />
<glyph unicode="&#x41e;" horiz-adv-x="1556" d="M61 547v319q0 135 36 238t98 168.5t154.5 107t196 58t232.5 16.5t232.5 -16.5t196 -58t154.5 -107t98 -168.5t36 -238v-319q0 -135 -36 -235.5t-97.5 -163.5t-155 -101t-195.5 -52.5t-233 -14.5t-233 14.5t-195.5 52.5t-155 101t-97.5 163.5t-36 235.5zM614 614 q0 -47 2 -74.5t11 -60t26 -50t48 -29t77 -11.5t77 11.5t48 29t26 50t11 60t2 74.5v205q0 47 -2 74.5t-11 60t-26 50t-48 29t-77 11.5t-77.5 -12t-48.5 -29t-25.5 -50t-10.5 -60t-2 -74v-205z" />
<glyph unicode="&#x41f;" horiz-adv-x="1617" d="M102 0v1434h1414v-1434h-533v983h-348v-983h-533z" />
<glyph unicode="&#x420;" horiz-adv-x="1433" d="M102 0v1434h594q367 0 521.5 -130t154.5 -438q0 -307 -154 -434t-522 -127h-61v-305h-533zM635 715h61q74 0 108 33t34 122q0 90 -32.5 121t-109.5 31h-61v-307z" />
<glyph unicode="&#x421;" horiz-adv-x="1191" d="M61 588v258q0 134 39.5 240t105 174t156 112.5t186 63t202.5 18.5q64 0 159 -15t158 -31l63 -15l-86 -451q-220 41 -294 41q-70 0 -113 -40.5t-43 -102.5v-246q0 -143 156 -143q33 0 111.5 10.5t140.5 20.5l63 10l65 -451q-237 -61 -380 -61q-108 0 -203.5 18t-186 62.5 t-155.5 112t-104.5 174t-39.5 241.5z" />
<glyph unicode="&#x422;" d="M20 963v471h1188v-471h-327v-963h-533v963h-328z" />
<glyph unicode="&#x423;" horiz-adv-x="1492" d="M20 1434h619l152 -691h10l119 691h553l-336 -1110q-34 -85 -92.5 -149.5t-121 -100.5t-138 -58t-135 -29t-120.5 -7q-109 0 -238.5 13.5t-225.5 39.5l86 379q137 -41 239 -41q36 0 52.5 0.5t48.5 2t49.5 6.5t39 13t34 21.5t18.5 31.5q-36 0 -81 10.5t-101 35.5 t-109.5 77.5t-87.5 124.5z" />
<glyph unicode="&#x424;" horiz-adv-x="2048" d="M61 707v102q0 313 160 448.5t516 135.5h21v123h532v-123h21q356 0 516 -135.5t160 -448.5v-102q0 -313 -160 -448.5t-516 -135.5h-21v-123h-532v123h-21q-356 0 -516 135.5t-160 448.5zM594 707q0 -123 29 -168t114 -45h21v526h-21q-88 0 -115.5 -47t-27.5 -164v-102z M1290 494h21q85 0 114 45t29 168v102q0 117 -28 165t-115 48h-21v-528z" />
<glyph unicode="&#x425;" horiz-adv-x="1597" d="M20 0l347 717l-347 717h635l144 -484l141 484h637l-348 -717l348 -717h-637l-141 481l-144 -481h-635z" />
<glyph unicode="&#x426;" horiz-adv-x="1679" d="M102 0v1434h533v-1024h287v1024h532v-1024h164l-25 -672h-508v262h-983z" />
<glyph unicode="&#x427;" horiz-adv-x="1474" d="M61 860v574h533v-533q0 -49 23.5 -75.5t66.5 -26.5q64 0 156 10v625h532v-1434h-532v381q-108 -12 -193 -12q-37 0 -72 2t-97.5 12.5t-114 29t-110 55.5t-98.5 87t-67 128.5t-27 176.5z" />
<glyph unicode="&#x428;" horiz-adv-x="2088" d="M102 0v1434h533v-1024h143v1024h533v-1024h143v1024h533v-1434h-1885z" />
<glyph unicode="&#x429;" horiz-adv-x="2211" d="M102 0v1434h533v-1024h143v1024h533v-1024h143v1024h533v-1024h163l-24 -672h-508v262h-1516z" />
<glyph unicode="&#x42a;" horiz-adv-x="1601" d="M20 1051l41 383h742v-484q144 15 213 15q276 0 400 -122.5t124 -361.5q0 -176 -67 -280t-214 -152.5t-395 -48.5h-594v1051h-250zM803 348h61q77 0 109.5 26.5t32.5 102.5t-34 103.5t-108 27.5h-61v-260z" />
<glyph unicode="&#x42b;" horiz-adv-x="2129" d="M102 0v1434h533v-484q144 15 213 15q276 0 400 -122.5t124 -361.5q0 -261 -154.5 -371t-521.5 -110h-594zM635 348h61q77 0 109.5 26.5t32.5 102.5t-34 103.5t-108 27.5h-61v-260zM1495 0v1434h533v-1434h-533z" />
<glyph unicode="&#x42c;" horiz-adv-x="1433" d="M102 0v1434h533v-484q144 15 213 15q276 0 400 -122.5t124 -361.5q0 -261 -154.5 -371t-521.5 -110h-594zM635 348h61q77 0 109.5 26.5t32.5 102.5t-34 103.5t-108 27.5h-61v-260z" />
<glyph unicode="&#x42d;" horiz-adv-x="1290" d="M41 41l82 410q74 -12 208.5 -26.5t209.5 -14.5q153 0 153 112v37h-489v328h489v37q0 69 -41 94.5t-112 25.5q-61 0 -212 -21.5t-206 -39.5l-82 410q30 7 80.5 17t183 27t236.5 17q107 0 202.5 -18.5t186 -63t155.5 -112.5t104.5 -174t39.5 -240v-258q0 -135 -39.5 -241.5 t-104.5 -174t-155.5 -112t-186 -62.5t-202.5 -18q-95 0 -220 15t-203 31z" />
<glyph unicode="&#x42e;" horiz-adv-x="2088" d="M102 0v1434h533v-553h143v100q0 102 32.5 182.5t89 134.5t136.5 89.5t171 51t196 15.5q625 0 625 -575v-371q0 -95 -17 -171.5t-47 -130.5t-75.5 -95t-96.5 -65.5t-117 -39.5t-130 -20.5t-142 -5.5q-110 0 -196.5 10.5t-169.5 40.5t-138 78.5t-88 128.5t-33 188v106h-143 v-532h-533zM1290 494q0 -125 113 -125t113 125v450q0 121 -113 121t-113 -121v-450z" />
<glyph unicode="&#x42f;" horiz-adv-x="1556" d="M88 913q0 84 21 157.5t71 141.5t125.5 116.5t191.5 77t261 28.5h696v-1434h-532v367h-37l-185 -367h-577l260 426q-146 48 -220.5 175.5t-74.5 311.5zM616 870q0 -64 37 -99.5t105 -35.5h164v266h-164q-142 0 -142 -131z" />
<glyph unicode="&#x430;" d="M61 303q0 164 91.5 230.5t298.5 66.5h208v23q0 57 -27.5 91t-107.5 34q-64 0 -183.5 -13t-193.5 -26l-51 270q249 65 455 65q106 0 191 -11t162.5 -38.5t129.5 -72t82.5 -115.5t30.5 -164v-643h-492v61q-116 -81 -297 -81q-144 0 -220.5 75.5t-76.5 247.5zM553 311 q0 -34 18 -57t52 -23h32v166l-57 -4q-45 -15 -45 -82z" />
<glyph unicode="&#x431;" horiz-adv-x="1318" d="M61 565v271q0 148 30 256t89.5 177.5t140 108.5t191.5 56l385 59q127 19 258 72l123 -389q-90 -49 -193 -58l-352 -33q-63 -6 -106 -25.5t-66.5 -50.5t-34 -63t-14.5 -74l-6 -59q39 53 132 98t236 45q66 0 116.5 -8.5t101.5 -35.5t83.5 -71.5t53 -121t20.5 -180.5v-88 q0 -132 -39.5 -225t-118.5 -147.5t-185 -79t-251 -24.5q-117 0 -205 15.5t-164 55t-123.5 105.5t-74.5 169.5t-27 244.5zM553 463q0 -89 20.5 -119.5t81.5 -30.5q55 0 79 32.5t24 117.5v47q0 81 -24.5 113t-78.5 32q-60 0 -81 -32t-21 -113v-47z" />
<glyph unicode="&#x432;" d="M82 0v1024h729q126 0 196.5 -27.5t98 -80.5t27.5 -144q0 -153 -199 -190q43 -2 72 -6.5t67 -19.5t60.5 -39.5t38.5 -70.5t16 -110q0 -95 -21.5 -156t-75.5 -103t-144.5 -59.5t-231.5 -17.5h-633zM532 258h123q34 0 58 28t24 70q0 35 -26.5 61.5t-69.5 26.5h-109v-186z M532 616h95q24 0 39.5 24t15.5 54q0 25 -16 50.5t-39 25.5h-95v-154z" />
<glyph unicode="&#x433;" horiz-adv-x="983" d="M82 0v1024h881v-369h-390v-655h-491z" />
<glyph unicode="&#x434;" horiz-adv-x="1515" d="M41 -328v656h102q125 129 125 696h1065v-696h121l-22 -656h-428v328h-512l-21 -328h-430zM643 328h199v409h-131q0 -230 -68 -409z" />
<glyph unicode="&#x435;" horiz-adv-x="1230" d="M61 412v131q0 264 140.5 382.5t433.5 118.5q83 0 153 -8t147.5 -34t131 -68.5t88.5 -118.5t35 -178v-231h-637v-31q0 -45 20 -69t48 -30t75 -6q81 0 218 9t198 18l45 -283q-236 -34 -522 -34q-84 0 -158.5 10t-153.5 39.5t-134.5 75.5t-91.5 125t-36 182zM553 618h188v35 q0 74 -28 101.5t-78 27.5q-47 0 -64.5 -25.5t-17.5 -101.5v-37z" />
<glyph unicode="&#x436;" horiz-adv-x="1851" d="M20 1024h459l183 -440h30v440h471v-440h31l166 440h471l-207 -494l203 -530h-465l-170 483h-29v-483h-471v479h-26l-191 -479h-452l227 530z" />
<glyph unicode="&#x437;" horiz-adv-x="1153" d="M61 31l50 260q71 -17 241 -17q71 0 110.5 2t74.5 9.5t49 22.5t14 40q0 55 -92 55h-305v230h252q90 0 90 63q0 35 -48.5 48.5t-144.5 13.5q-136 0 -241 -19l-50 260q63 15 180 29t201 14q100 0 177.5 -4.5t147 -15t118 -28.5t84 -44.5t52.5 -64t17 -86.5 q0 -83 -50.5 -130.5t-127.5 -64.5q41 -7 72.5 -16t67 -28.5t58.5 -46.5t38.5 -72t15.5 -103q0 -99 -44 -168t-133 -109.5t-208.5 -58.5t-284.5 -18q-120 0 -224.5 14.5t-156.5 32.5z" />
<glyph unicode="&#x438;" horiz-adv-x="1392" d="M82 0v1024h491v-494l314 494h424v-1024h-492v492l-311 -492h-426z" />
<glyph unicode="&#x439;" horiz-adv-x="1392" d="M82 0v1024h491v-494l314 494h424v-1024h-492v492l-311 -492h-426zM164 1495v41h368q0 -40 38.5 -71t125.5 -31t125.5 31t38.5 71h369v-41q0 -76 -32.5 -135t-84 -94.5t-124 -58.5t-143 -31.5t-149.5 -8.5q-78 0 -148.5 8.5t-142.5 31.5t-124 58.5t-84.5 94.5t-32.5 135z " />
<glyph unicode="&#x43a;" horiz-adv-x="1290" d="M82 0v1024h491v-399h21l143 399h547l-258 -496l264 -528h-536l-162 444h-19v-444h-491z" />
<glyph unicode="&#x43b;" horiz-adv-x="1421" d="M20 328h105q27 0 47 15t39 59t31 120t19 202t7 300h1071v-1024h-491v717h-158q0 -100 -2 -166t-11 -151t-26 -139.5t-48 -113t-75 -91.5t-110 -54.5t-150 -21.5q-32 0 -100.5 6t-104.5 14z" />
<glyph unicode="&#x43c;" horiz-adv-x="1769" d="M61 0l76 1024h574l174 -696l174 696h573l76 -1024h-434l-19 670l-198 -670h-383l-160 670l-18 -670h-435z" />
<glyph unicode="&#x43d;" horiz-adv-x="1392" d="M82 0v1024h491v-348h246v348h492v-1024h-492v348h-246v-348h-491z" />
<glyph unicode="&#x43e;" horiz-adv-x="1249" d="M41 430v160q0 452 573 452q289 0 441.5 -112.5t152.5 -339.5v-160q0 -227 -152.5 -340t-441.5 -113q-573 0 -573 453zM512 438q0 -33 1 -53t6.5 -46t16 -41t30.5 -25.5t48 -10.5q35 0 57 14.5t31.5 43.5t12 54t2.5 64v144q0 27 -0.5 42.5t-3.5 39.5t-9.5 38t-17.5 28.5 t-29 21t-43 6.5q-102 0 -102 -127v-193z" />
<glyph unicode="&#x43f;" horiz-adv-x="1392" d="M82 0v1024h1229v-1024h-492v696h-246v-696h-491z" />
<glyph unicode="&#x440;" horiz-adv-x="1290" d="M82 -410v1434h491v-61q27 18 46.5 29t59 28.5t88 27t103.5 9.5q66 0 118.5 -15t98.5 -53t76.5 -99t48 -156.5t17.5 -221.5t-18 -218t-48 -148t-77.5 -89.5t-98 -45t-117.5 -11.5q-55 0 -102.5 6.5t-72 13.5t-65.5 21.5t-57 19.5v-471h-491zM573 326q48 0 64 2 q52 8 76 49.5t24 134.5q0 100 -34 143t-109 43h-21v-372z" />
<glyph unicode="&#x441;" horiz-adv-x="993" d="M61 436v148q0 104 46.5 192t124.5 146.5t181 91.5t216 33q56 0 163.5 -14t180.5 -40l-62 -307q0 2 -34 10t-77 15.5t-63 7.5q-83 0 -123.5 -37.5t-40.5 -138.5v-66q0 -102 39 -138t125 -36q18 0 33 1t24.5 2t25 4.5t23 5t31.5 8.5t37 10l62 -307q-122 -45 -344 -45 q-93 0 -175 15t-155 49.5t-125 86t-82.5 129t-30.5 174.5z" />
<glyph unicode="&#x442;" horiz-adv-x="1187" d="M41 655v369h1106v-369h-303v-655h-492v655h-311z" />
<glyph unicode="&#x443;" horiz-adv-x="1333" d="M14 1024h549l111 -719l104 719h535l-340 -1137q-75 -141 -156 -219q-142 -139 -379 -139q-165 0 -418 72l66 325q63 -18 161 -35.5t128 -17.5q57 0 83.5 12t53.5 62l29 55q-103 0 -193 72.5t-121 179.5z" />
<glyph unicode="&#x444;" horiz-adv-x="1925" d="M41 512q0 253 111 392.5t340 139.5q40 0 119 -13t106 -27v430h491v-430q29 14 108 27t118 13q229 0 339.5 -139.5t110.5 -392.5q0 -532 -450 -532q-39 0 -118 13t-108 27v-430h-491v430q-30 -14 -108 -27t-117 -13q-233 0 -342 133t-109 399zM532 512q0 -65 16 -112 t42.5 -70.5t52.5 -33.5t55 -11h19v452h-19q-82 0 -124 -57.5t-42 -167.5zM1208 285h15q77 0 123.5 56.5t46.5 170.5q0 225 -170 225h-15v-452z" />
<glyph unicode="&#x445;" horiz-adv-x="1273" d="M20 0l228 532l-228 492h519l106 -360l94 360h514l-223 -492l223 -532h-516l-104 358l-94 -358h-519z" />
<glyph unicode="&#x446;" horiz-adv-x="1454" d="M82 0v1024h491v-696h205v696h492v-696h123l-27 -656h-465v328h-819z" />
<glyph unicode="&#x447;" horiz-adv-x="1310" d="M61 713v311h492v-369q0 -56 20 -79t62 -23q20 0 102 10v461h492v-1024h-492v246q-151 -21 -268 -21q-213 0 -310.5 113t-97.5 375z" />
<glyph unicode="&#x448;" horiz-adv-x="1884" d="M82 0v1024h471v-696h164v696h450v-696h164v696h471v-1024h-1720z" />
<glyph unicode="&#x449;" horiz-adv-x="1986" d="M82 0v1024h471v-696h164v696h450v-696h164v696h471v-696h123l-24 -656h-467v328h-1352z" />
<glyph unicode="&#x44a;" horiz-adv-x="1495" d="M20 727l41 297h717v-281q157 13 228 13q113 0 189 -16.5t132 -58t81.5 -114t25.5 -182.5q0 -80 -19 -141t-58.5 -103t-90.5 -70t-124 -43.5t-149.5 -21.5t-175.5 -6h-530v727h-267zM778 276h82q35 0 58.5 30.5t23.5 78.5q0 40 -26.5 69t-69.5 29h-68v-207z" />
<glyph unicode="&#x44b;" horiz-adv-x="1898" d="M82 0v1024h491v-281q189 13 228 13q113 0 189 -16.5t132 -58t81.5 -114t25.5 -182.5q0 -80 -19 -141t-58.5 -103t-90.5 -70t-124 -43.5t-149.5 -21.5t-175.5 -6h-530zM573 276h82q35 0 58.5 30.5t23.5 78.5q0 40 -26.5 69t-69.5 29h-68v-207zM1325 0v1024h492v-1024h-492 z" />
<glyph unicode="&#x44c;" horiz-adv-x="1290" d="M82 0v1024h491v-281q189 13 228 13q113 0 189 -16.5t132 -58t81.5 -114t25.5 -182.5q0 -80 -19 -141t-58.5 -103t-90.5 -70t-124 -43.5t-149.5 -21.5t-175.5 -6h-530zM573 276h82q35 0 58.5 30.5t23.5 78.5q0 40 -26.5 69t-69.5 29h-68v-207z" />
<glyph unicode="&#x44d;" horiz-adv-x="1064" d="M41 41l63 270q112 -30 218 -30q89 0 137.5 25t48.5 89v11h-324v225h324v14q0 27 -10 45.5t-24.5 28t-42 15t-49.5 6.5t-60 1q-54 0 -92.5 -6.5t-104.5 -25.5l-64 270q185 65 390 65q95 0 175.5 -15t151.5 -49.5t120 -87t77.5 -131t28.5 -177.5v-150q0 -121 -43 -211 t-120 -142t-174 -76.5t-216 -24.5q-103 0 -216 16t-194 45z" />
<glyph unicode="&#x44e;" horiz-adv-x="1890" d="M82 0v1024h450v-389h138v31q0 77 34 141t90.5 106.5t132 72.5t156 43t164.5 13q582 0 582 -473v-118q0 -106 -30 -188t-81.5 -135.5t-126.5 -87.5t-159 -48.5t-185 -14.5q-78 0 -156.5 13t-154 41.5t-133.5 69.5t-93.5 101t-35.5 132v14h-142v-348h-450zM1151 410 q0 -60 20 -93.5t76 -33.5q94 0 94 127v170q0 34 -1.5 54.5t-6.5 42.5t-15 33.5t-27.5 19t-43.5 7.5q-53 0 -74.5 -39.5t-21.5 -117.5v-170z" />
<glyph unicode="&#x44f;" horiz-adv-x="1331" d="M41 649q0 192 117 283.5t381 91.5h710v-1024h-491v299h-37l-154 -299h-516l213 340q-33 6 -59 14.5t-58.5 30t-54 53t-36.5 86t-15 125.5zM553 651q2 -49 24.5 -71.5t77.5 -22.5h103v188h-103q-56 0 -79 -22.5t-23 -71.5z" />
<glyph unicode="&#x451;" horiz-adv-x="1230" d="M61 412v131q0 264 140.5 382.5t433.5 118.5q83 0 153 -8t147.5 -34t131 -68.5t88.5 -118.5t35 -178v-231h-637v-31q0 -35 10.5 -57.5t32.5 -32t43.5 -12.5t56.5 -3q81 0 218 9t198 18l43 -279q-264 -38 -520 -38q-84 0 -158.5 10t-153.5 39.5t-134.5 75.5t-91.5 125 t-36 182zM150 1153v342h411v-342h-411zM553 618h188v35q0 74 -28 101.5t-78 27.5q-47 0 -64.5 -25.5t-17.5 -101.5v-37zM666 1153v342h413v-342h-413z" />
<glyph unicode="&#x2000;" horiz-adv-x="997" />
<glyph unicode="&#x2001;" horiz-adv-x="1995" />
<glyph unicode="&#x2002;" horiz-adv-x="997" />
<glyph unicode="&#x2003;" horiz-adv-x="1995" />
<glyph unicode="&#x2004;" horiz-adv-x="665" />
<glyph unicode="&#x2005;" horiz-adv-x="498" />
<glyph unicode="&#x2006;" horiz-adv-x="332" />
<glyph unicode="&#x2007;" horiz-adv-x="332" />
<glyph unicode="&#x2008;" horiz-adv-x="249" />
<glyph unicode="&#x2009;" horiz-adv-x="399" />
<glyph unicode="&#x200a;" horiz-adv-x="110" />
<glyph unicode="&#x2010;" horiz-adv-x="819" d="M102 451v389h615v-389h-615z" />
<glyph unicode="&#x2011;" horiz-adv-x="819" d="M102 451v389h615v-389h-615z" />
<glyph unicode="&#x2012;" horiz-adv-x="819" d="M102 451v389h615v-389h-615z" />
<glyph unicode="&#x2013;" d="M102 492v409h1024v-409h-1024z" />
<glyph unicode="&#x2014;" horiz-adv-x="1781" d="M102 492v409h1577v-409h-1577z" />
<glyph unicode="&#x2018;" horiz-adv-x="696" d="M82 803v254q0 130 94.5 271.5t212.5 207.5l166 -96q-52 -45 -78 -96.5t-26 -122.5h163v-418h-532z" />
<glyph unicode="&#x2019;" horiz-adv-x="696" d="M82 1016v418h532v-254q0 -130 -94.5 -272t-212.5 -208l-166 97q52 45 78.5 97t26.5 122h-164z" />
<glyph unicode="&#x201a;" horiz-adv-x="696" d="M82 0v418h532v-254q0 -130 -94.5 -271.5t-212.5 -207.5l-166 96q52 45 78.5 97t26.5 122h-164z" />
<glyph unicode="&#x201c;" horiz-adv-x="1310" d="M82 803v254q0 130 94.5 271.5t212.5 207.5l166 -96q-52 -45 -78 -96.5t-26 -122.5h163v-418h-532zM737 803v254q0 130 94.5 271.5t212.5 207.5l166 -96q-52 -45 -78 -96.5t-26 -122.5h164v-418h-533z" />
<glyph unicode="&#x201d;" horiz-adv-x="1310" d="M82 1016v418h532v-254q0 -130 -94.5 -272t-212.5 -208l-166 97q52 45 78.5 97t26.5 122h-164zM737 1016v418h533v-254q0 -130 -94.5 -272t-212.5 -208l-166 97q52 45 78 96.5t26 122.5h-164z" />
<glyph unicode="&#x201e;" horiz-adv-x="1310" d="M82 0v418h532v-254q0 -130 -94.5 -271.5t-212.5 -207.5l-166 96q52 45 78.5 97t26.5 122h-164zM737 0v418h533v-254q0 -130 -94.5 -271.5t-212.5 -207.5l-166 96q52 45 78 96.5t26 122.5h-164z" />
<glyph unicode="&#x2022;" horiz-adv-x="868" d="M102 545q0 147 81.5 240.5t246.5 93.5q86 0 151.5 -26.5t105 -73t59.5 -105.5t20 -129q0 -146 -84 -238t-252 -92q-85 0 -149 25.5t-102.5 71.5t-57.5 104.5t-19 128.5z" />
<glyph unicode="&#x2026;" horiz-adv-x="2088" d="M82 0v418h532v-418h-532zM778 0v418h533v-418h-533zM1475 0v418h532v-418h-532z" />
<glyph unicode="&#x202f;" horiz-adv-x="399" />
<glyph unicode="&#x2030;" horiz-adv-x="3131" d="M102 969v112q0 192 104 282.5t286 90.5t285.5 -89.5t103.5 -283.5v-112q0 -363 -389 -363q-390 0 -390 363zM420 995q0 -33 1 -52.5t5 -41.5t11.5 -33t21 -18.5t33.5 -7.5q44 0 56.5 28t12.5 91v106q0 23 -0.5 34t-2 33t-6 33.5t-11.5 25.5t-19.5 20t-29.5 6 q-44 0 -58 -31.5t-14 -85.5v-107zM580 0l630 1434h451l-633 -1434h-448zM1370 342v113q0 192 103.5 282t285.5 90t285.5 -89.5t103.5 -282.5v-113q0 -362 -389 -362t-389 362zM1688 334q0 -64 12.5 -91.5t58.5 -27.5q44 0 57 28t13 91v141q0 25 -2.5 43t-9 36.5t-21 28 t-37.5 9.5q-17 0 -30 -6t-20.5 -20t-12 -25.5t-6 -33.5t-2 -33t-0.5 -34v-106zM2251 342v113q0 192 103.5 282t285.5 90t285.5 -89.5t103.5 -282.5v-113q0 -362 -389 -362t-389 362zM2568 334q0 -64 13 -91.5t59 -27.5q44 0 57 28t13 91v141q0 25 -2.5 43t-9 36.5t-21 28 t-37.5 9.5q-25 0 -41 -13.5t-22 -40.5t-7.5 -46t-1.5 -52v-106z" />
<glyph unicode="&#x205f;" horiz-adv-x="498" />
<glyph unicode="&#x20ac;" horiz-adv-x="1458" d="M102 692h123v53h-82l-41 238h134v14q0 103 34.5 183t92 131t137.5 84t165 46t181 13q108 0 235.5 -15t200.5 -31l74 -15l-86 -369q-358 20 -381 20q-131 0 -131 -47v-14h506l-39 -238h-467v-53h459l-37 -237h-422v-17q0 -27 31.5 -38t111.5 -11q33 0 130 5.5t178 10.5 l81 5l66 -369q-30 -7 -81 -17t-186 -27t-243 -17q-98 0 -181.5 12t-164.5 44t-137.5 82t-91.5 132t-35 188v17h-93z" />
<glyph unicode="&#x2122;" horiz-adv-x="1732" d="M72 1198v236h594v-236h-164v-479h-266v479h-164zM686 719l57 715h308l118 -420l117 420h307l58 -715h-256l-19 395l-104 -395h-205l-104 393l-21 -393h-256z" />
<glyph unicode="&#x25fc;" horiz-adv-x="1024" d="M0 0v1024h1024v-1024h-1024z" />
</font>
</defs>
</svg>
